<svg width="13" height="15" viewBox="0 0 13 15" fill="none" xmlns="http://www.w3.org/2000/svg">
<path d="M5.96536 7.15382C6.92623 7.15382 7.75817 6.8092 8.43811 6.12925C9.11784 5.44941 9.46258 4.61759 9.46258 3.6566C9.46258 2.69595 9.11795 1.86402 8.438 1.18396C7.75806 0.504233 6.92612 0.159607 5.96536 0.159607C5.00437 0.159607 4.17255 0.504233 3.49271 1.18407C2.81288 1.86391 2.46814 2.69584 2.46814 3.6566C2.46814 4.61759 2.81288 5.44952 3.49271 6.12936C4.17277 6.80908 5.0047 7.15382 5.96536 7.15382ZM4.09445 1.7857C4.6161 1.26405 5.22803 1.01048 5.96536 1.01048C6.70258 1.01048 7.31462 1.26405 7.83638 1.7857C8.35802 2.30746 8.6117 2.9195 8.6117 3.6566C8.6117 4.39393 8.35802 5.00586 7.83638 5.52762C7.31462 6.04938 6.70258 6.30295 5.96536 6.30295C5.22825 6.30295 4.61632 6.04927 4.09445 5.52762C3.57269 5.00597 3.31901 4.39393 3.31901 3.6566C3.31901 2.9195 3.57269 2.30746 4.09445 1.7857Z" fill="#00C1D1"/>
<path d="M12.0845 11.3246C12.0649 11.0416 12.0252 10.733 11.9669 10.4071C11.9079 10.0788 11.8321 9.76838 11.7412 9.48468C11.6473 9.19146 11.5198 8.90189 11.3619 8.62439C11.1983 8.33637 11.006 8.08557 10.7902 7.8792C10.5645 7.66329 10.2883 7.48971 9.96879 7.36309C9.65042 7.23714 9.29759 7.17333 8.92018 7.17333C8.77196 7.17333 8.62861 7.23414 8.35178 7.41438C8.18141 7.52549 7.98212 7.65399 7.75968 7.79611C7.56948 7.9173 7.31181 8.03085 6.99355 8.13365C6.68304 8.23413 6.36777 8.28508 6.05649 8.28508C5.74543 8.28508 5.43016 8.23413 5.11943 8.13365C4.8015 8.03096 4.54372 7.91742 4.35385 7.79623C4.13352 7.65543 3.93412 7.52693 3.7612 7.41427C3.48459 7.23403 3.34124 7.17322 3.19303 7.17322C2.8155 7.17322 2.46279 7.23714 2.14452 7.3632C1.82527 7.4896 1.54888 7.66318 1.32301 7.87931C1.10721 8.0858 0.914904 8.33648 0.751398 8.62439C0.593763 8.90189 0.466148 9.19135 0.372209 9.48479C0.281483 9.76849 0.205601 10.0788 0.146668 10.4071C0.0881782 10.7326 0.0486309 11.0413 0.0290235 11.3249C0.00974834 11.6022 0 11.8908 0 12.1823C0 12.9402 0.240939 13.5538 0.71606 14.0064C1.18531 14.4529 1.8061 14.6793 2.56127 14.6793H9.5526C10.3075 14.6793 10.9283 14.4529 11.3977 14.0064C11.8729 13.5542 12.1139 12.9404 12.1139 12.1822C12.1138 11.8896 12.1039 11.6011 12.0845 11.3246ZM10.811 13.3899C10.501 13.685 10.0893 13.8285 9.55249 13.8285H2.56127C2.02433 13.8285 1.61269 13.685 1.30273 13.39C0.998651 13.1005 0.850875 12.7054 0.850875 12.1823C0.850875 11.9102 0.859848 11.6416 0.877794 11.3837C0.895297 11.1307 0.931077 10.8528 0.98414 10.5574C1.03654 10.2658 1.10322 9.99204 1.18254 9.74423C1.25864 9.50662 1.36244 9.27133 1.49116 9.04468C1.61402 8.82866 1.75537 8.64333 1.91134 8.49401C2.05723 8.35432 2.24112 8.24 2.4578 8.15426C2.6582 8.07494 2.8834 8.03152 3.12789 8.02498C3.15769 8.04082 3.21075 8.07106 3.29671 8.12712C3.47163 8.2411 3.67324 8.37116 3.89612 8.5135C4.14737 8.67369 4.47106 8.81836 4.85778 8.94321C5.25314 9.07104 5.65636 9.13596 6.0566 9.13596C6.45684 9.13596 6.86017 9.07104 7.25531 8.94332C7.64237 8.81825 7.96595 8.67369 8.21752 8.51328C8.44561 8.3675 8.64157 8.24122 8.81649 8.12712C8.90245 8.07117 8.95551 8.04082 8.98531 8.02498C9.22991 8.03152 9.45512 8.07494 9.65562 8.15426C9.87219 8.24 10.0561 8.35443 10.202 8.49401C10.3579 8.64322 10.4993 8.82855 10.6221 9.04479C10.751 9.27133 10.8549 9.50673 10.9309 9.74412C11.0103 9.99226 11.0771 10.2659 11.1294 10.5573C11.1823 10.8532 11.2182 11.1313 11.2357 11.3838V11.3841C11.2538 11.641 11.2629 11.9095 11.263 12.1823C11.2629 12.7055 11.1151 13.1005 10.811 13.3899Z" fill="#00C1D1"/>
</svg>
