<svg width="22" height="41" viewBox="0 0 22 41" fill="none" xmlns="http://www.w3.org/2000/svg">
<path d="M21.2368 16.9665V11.8475V6.72845C21.2368 6.22223 20.8266 5.81206 20.3204 5.81206H11.7343C11.2281 5.81206 10.8179 5.40189 10.8179 4.89567V1.53931C10.8179 1.03309 10.4078 0.622925 9.90153 0.622925L1.67896 0.622925C1.17274 0.622925 0.762573 1.03309 0.762573 1.53931L0.762573 5.74195C0.762573 6.24817 1.17274 6.65834 1.67896 6.65834L9.90153 6.65834C10.4078 6.65834 10.8179 7.0685 10.8179 7.57472V15.8601C10.8179 16.3663 10.4078 16.7765 9.90153 16.7765H1.67896C1.17274 16.7765 0.762573 17.1866 0.762573 17.6929L0.762573 28.468C0.762573 28.7113 0.859332 28.9441 1.03111 29.1158L10.5494 40.6496C10.7212 40.8214 10.9539 40.9181 11.1972 40.9181H20.3211C20.8273 40.9181 21.2375 40.5079 21.2375 40.0017L21.2375 29.763C21.2375 29.2568 20.8273 28.8466 20.3211 28.8466H9.88039C9.37416 28.8466 8.964 28.4364 8.964 27.9302V18.7986C8.964 18.2923 9.37416 17.8822 9.88039 17.8822H20.3211C20.8266 17.8822 21.2368 17.472 21.2368 16.9665Z" fill="#00C1D1"/>
</svg>
