<svg width="131" height="16" viewBox="0 0 131 16" fill="none" xmlns="http://www.w3.org/2000/svg">
<path d="M15.9844 6.40852C15.8843 6.09885 15.6096 5.87891 15.2847 5.84963L10.8707 5.44884L9.12531 1.36356C8.99661 1.06416 8.70351 0.870361 8.37786 0.870361C8.05221 0.870361 7.75912 1.06416 7.63042 1.36426L5.88502 5.44884L1.47036 5.84963C1.146 5.87961 0.872036 6.09885 0.771342 6.40852C0.670648 6.71818 0.763641 7.05784 1.00902 7.27194L4.34545 10.198L3.36161 14.5318C3.28962 14.8505 3.4133 15.1798 3.67769 15.371C3.81981 15.4736 3.98607 15.5259 4.15374 15.5259C4.29831 15.5259 4.44171 15.4869 4.5704 15.4099L8.37786 13.1343L12.1839 15.4099C12.4624 15.5775 12.8135 15.5622 13.0773 15.371C13.3418 15.1793 13.4654 14.8498 13.3934 14.5318L12.4096 10.198L15.746 7.27252C15.9914 7.05784 16.0851 6.71877 15.9844 6.40852Z" fill="#00C1D1"/>
<path d="M44.6931 6.40852C44.593 6.09885 44.3184 5.87891 43.9934 5.84963L39.5794 5.44884L37.834 1.36356C37.7053 1.06416 37.4123 0.870361 37.0866 0.870361C36.761 0.870361 36.4679 1.06416 36.3392 1.36426L34.5938 5.44884L30.1791 5.84963C29.8547 5.87961 29.5808 6.09885 29.4801 6.40852C29.3794 6.71818 29.4724 7.05784 29.7178 7.27194L33.0542 10.198L32.0704 14.5318C31.9984 14.8505 32.122 15.1798 32.3864 15.371C32.5285 15.4736 32.6948 15.5259 32.8625 15.5259C33.007 15.5259 33.1504 15.4869 33.2791 15.4099L37.0866 13.1343L40.8927 15.4099C41.1712 15.5775 41.5223 15.5622 41.7861 15.371C42.0506 15.1793 42.1741 14.8498 42.1022 14.5318L41.1183 10.198L44.4547 7.27252C44.7001 7.05784 44.7938 6.71877 44.6931 6.40852Z" fill="#00C1D1"/>
<path d="M73.4019 6.40852C73.3018 6.09885 73.0271 5.87891 72.7021 5.84963L68.2882 5.44884L66.5428 1.36356C66.4141 1.06416 66.121 0.870361 65.7953 0.870361C65.4697 0.870361 65.1766 1.06416 65.0479 1.36426L63.3025 5.44884L58.8878 5.84963C58.5635 5.87961 58.2895 6.09885 58.1888 6.40852C58.0881 6.71818 58.1811 7.05784 58.4265 7.27194L61.7629 10.198L60.7791 14.5318C60.7071 14.8505 60.8308 15.1798 61.0952 15.371C61.2373 15.4736 61.4036 15.5259 61.5712 15.5259C61.7158 15.5259 61.8592 15.4869 61.9879 15.4099L65.7953 13.1343L69.6014 15.4099C69.8799 15.5775 70.231 15.5622 70.4948 15.371C70.7593 15.1793 70.8829 14.8498 70.8109 14.5318L69.8271 10.198L73.1635 7.27252C73.4089 7.05784 73.5026 6.71877 73.4019 6.40852Z" fill="#00C1D1"/>
<path d="M102.111 6.40852C102.01 6.09885 101.736 5.87891 101.411 5.84963L96.9969 5.44884L95.2515 1.36356C95.1228 1.06416 94.8297 0.870361 94.5041 0.870361C94.1784 0.870361 93.8853 1.06416 93.7566 1.36426L92.0112 5.44884L87.5966 5.84963C87.2722 5.87961 86.9983 6.09885 86.8976 6.40852C86.7969 6.71818 86.8899 7.05784 87.1352 7.27194L90.4717 10.198L89.4878 14.5318C89.4158 14.8505 89.5395 15.1798 89.8039 15.371C89.946 15.4736 90.1123 15.5259 90.28 15.5259C90.4245 15.5259 90.5679 15.4869 90.6966 15.4099L94.5041 13.1343L98.3101 15.4099C98.5887 15.5775 98.9397 15.5622 99.2036 15.371C99.4681 15.1793 99.5916 14.8498 99.5196 14.5318L98.5358 10.198L101.872 7.27252C102.118 7.05784 102.211 6.71877 102.111 6.40852Z" fill="#00C1D1"/>
<path d="M130.819 6.40852C130.719 6.09885 130.445 5.87891 130.12 5.84963L125.706 5.44884L123.96 1.36356C123.832 1.06416 123.538 0.870361 123.213 0.870361C122.887 0.870361 122.594 1.06416 122.465 1.36426L120.72 5.44884L116.305 5.84963C115.981 5.87961 115.707 6.09885 115.606 6.40852C115.506 6.71818 115.599 7.05784 115.844 7.27194L119.18 10.198L118.197 14.5318C118.125 14.8505 118.248 15.1798 118.513 15.371C118.655 15.4736 118.821 15.5259 118.989 15.5259C119.133 15.5259 119.277 15.4869 119.405 15.4099L123.213 13.1343L127.019 15.4099C127.297 15.5775 127.648 15.5622 127.912 15.371C128.177 15.1793 128.3 14.8498 128.228 14.5318L127.245 10.198L130.581 7.27252C130.826 7.05784 130.92 6.71877 130.819 6.40852Z" fill="#00C1D1"/>
</svg>
